<svg xmlns="http://www.w3.org/2000/svg" xml:space="preserve" width="778.4082mm" height="173.24059mm" viewBox="0 0 778.4082 173.24059"><path d="M98.075-113.009H85.22v-6.874h-7.845v9.995h28.545v-25.958h-7.845" style="fill:#fff;fill-opacity:1;stroke-width:.489969" transform="matrix(4.09535 0 0 4.09535 -186.373 610.045)"/><path d="M88.773-121.465h7.843v-14.381h-19.24V-121.465h7.842zm-3.555-11.255h3.555v8.127h-3.555zM138.537-135.846h-7.845v25.958h7.845v-17.207h4.498v-3.121h-4.498M45.508-121.465h10.21v1.582h-10.21v3.126h20.418v6.87h8.126v-9.996H63.843v-1.582h10.21v-3.126H45.507M45.508-135.846v3.126h20.418v6.874h8.126v-10h-8.126M235.58-132.72v-3.126h-28.545v3.126h2.99v8.129h-2.99v3.126h2.99v8.456h-2.99v3.121h28.545v-3.12h-2.99v-8.457h2.99v-3.126h-2.99v-8.13zm-11.116 19.711h-6.313v-8.455h6.313zm0-11.582h-6.313v-8.127h6.313zM175.649-117.678h10.209v7.79h8.124v-7.79h10.21v-3.126h-28.543M175.649-135.846v13.842h28.542v-3.65h-20.418v-1.441h20.418v-3.65h-20.418v-1.446h20.418v-3.655h-20.418M164.678-130.814h-1.92a7.504 7.504 0 0 0-.993-1.906h1.426v-3.126h-5.723v-2.092h-7.843v2.092h-5.365v3.126h1.426a7.483 7.483 0 0 0-1.426 4.395 7.52 7.52 0 0 0 7.52 7.521h3.891a7.491 7.491 0 0 0 5.87-2.827h3.137v2.827h8.124v-15.042h-8.124zm-9.612 5.546c0 .74-.6 1.338-1.342 1.338-.738 0-1.34-.598-1.34-1.338v-6.11c0-.74.602-1.342 1.34-1.342h.002c.74 0 1.34.603 1.34 1.342zm7.763-.754c.233-.725.362-1.5.362-2.303 0-.03-.004-.064-.004-.098h1.49v2.4M167.805-119.883H149.26c-2.762 0-5 2.234-5 4.998a5 5 0 0 0 5 4.997h18.546a4.998 4.998 0 0 0 0-9.995m-5.001 6.874h-8.546a1.874 1.874 0 1 1 0-3.748h8.546c1.035 0 1.874.838 1.874 1.872a1.876 1.876 0 0 1-1.874 1.876" style="fill:#fff;fill-opacity:1;stroke-width:.489969" transform="matrix(4.09535 0 0 4.09535 -186.373 610.045)"/><g fill="#ed2124"><path d="M118.354-141.814c-9.692 0-17.577 7.884-17.577 17.575 0 9.692 7.885 17.58 17.577 17.58 9.693 0 17.578-7.888 17.578-17.58 0-9.691-7.885-17.575-17.578-17.575m16.015 17.575c0 3.567-1.174 6.865-3.153 9.53l-9.22-9.927 4.662-13.288c4.62 2.813 7.71 7.894 7.71 13.685m-32.027 0c0-8.829 7.185-16.012 16.013-16.012.623 0 1.233.04 1.838.108l-10.339 29.467c-4.507-2.837-7.512-7.855-7.512-13.563m13.945 15.875 4.025-11.47 7.738 8.33a15.914 15.914 0 0 1-9.695 3.282 16 16 0 0 1-2.068-.142M110.427-143.044c-.164.338-.428.853-1.288.657-1.62-.867 1.103-2.337 1.288-.657M99.847-134.798c-.017-.088.034-.112.051-.166.083-.01.077.24-.051.166M100.777-139.482c.002-.127-.02-.279.15-.25-.028.108-.007.26-.15.25M102.122-137.184c.169.137-.147.137 0 0M102.624-139.986c-.14-.015.05-.172 0 0M102.85-136.346c-.012-.068.046-.068.051-.127.037.014.044.044.092.049-.002.03-.002.054-.002.083-.048 0-.094-.005-.141-.005M104.006-137.306c.02-.054.06-.083.141-.079.037.147-.076.142-.141.079" style="stroke-width:.489969" transform="matrix(4.09535 0 0 4.09535 -186.373 610.045)"/><path d="M104.243-135.777c.023-.05.063-.084.144-.079.036.152-.077.142-.144.079M104.62-140.824c-.076-.074.012-.108-.038-.255.09-.015.119-.083.235-.073.063.235-.124.225-.197.328M104.563-137.11c-.14-.015.05-.172 0 0M106.01-131.77c-.102 0-.017-.147-.042-.21.084.01.101-.05.19-.035.02.152-.17.098-.148.245M106.51-134.489c.131.147-.167.24-.2.373-.275-.172.194-.206.2-.373M106.854-143.377h.095c.04.21-.252.069-.095 0M109.141-141.123c-.142-.015.05-.172 0 0M108.917-129.903c-.141-.054.057-.22 0 0M110.607-144.808c-.188-.034.275.044 0 0M111.596-143.245c-.14-.014.05-.171 0 0M111.495-136.326l.002-.084c.1-.014.088.064.09.128-.038-.01-.046-.044-.092-.044M111.606-135.268c-.122-.191.067-.45.249-.495.105.157-.016.402-.11.505-.08.005-.118-.079-.139-.01M111.841-136.988c-.172-.157.12-.225.106-.372.04.034.105.049.185.049.012.216-.15.26-.29.323M112.797-137.532c.063 0 .126.005.189.005l-.005.172c-.148.015-.209-.05-.184-.176M113.658-143.063c-.14-.02.05-.177 0 0M114.04-146.635c.303.063.27.754.115.936-.319-.108-.336-.72-.114-.936M114.713-148.757l.004-.171c.131.044.124-.05.235-.03-.023.123-.104.191-.24.201M114.95-138.87c.015-.141.101-.22.24-.24.269-.014.323.427-.105.373-.047-.04-.009-.157-.135-.132M117.032-147.718c.076-.29.308-.426.302-.789.179 0 .217-.068.286-.073.046.347-.354.641-.588.862M118.006-144.004c.002-.142.152-.274.287-.157-.009.137-.112.181-.287.157M118.403-143.054c-.054-.01-.037-.078-.043-.132.046.005.092.005.14.01.023.093-.092.054-.097.123M120.087-142.809c.147-.151.155.133 0 0M121.756-137.037c-.012-.152.122-.166.24-.196.098.093.018.235-.054.294-.095-.01-.056-.122-.186-.098M125.57-139.011c.23-.441.94-.417 1.2-.833.913-.196.898 1.038.023.803-.157.123-.237.324-.434.402-.216.01-.293.025-.467-.059-.431.96-1.553-.465-.322-.313" style="stroke-width:.489969" transform="matrix(4.09535 0 0 4.09535 -186.373 610.045)"/><path d="M125.15-139.114c0-.044.003-.083.005-.128.048 0 .094.005.14.01l-.002.123c-.048 0-.094-.005-.142-.005M127.11-141.98c.003-.04.003-.084.005-.123.046 0 .094 0 .14.005l-.002.127c-.048-.005-.094-.005-.142-.01M128.6-136.508c.17.138-.145.138 0 0M128.824-141.054c.163-.094.555-.103.702.029.575.877-1.316.789-.702-.03M129.927-145.18c-.093.01-.064-.196.051-.127l-.004.083c-.038-.01-.044.015-.048.044M129.91-144.636c.003-.03.003-.054.003-.083.03 0 .063 0 .094.005 0 .029 0 .058-.002.083-.03 0-.063-.005-.094-.005M130.449-138.703l.004-.166c.053.01.084-.005.095-.04.108.04.039.265-.1.206M132.03-143.103c-.165-.078.157-.122 0 0M132.252-144.318c-.358-.97 1.996-.72 1.118.348-.462.172-1.015.128-1.118-.348M135.804-147.022c.117.152.046.328.08.47-.872.794-1.316-1.034-.08-.47M136.855-142.627c-.14-.015.05-.172 0 0M108.74-137.002c-.124-.123-.196.029-.328.024.1-.465.6-.544.869-.843-.157.294-.412.495-.54.819M113.27-142.573c.315.21.907.333 1.215.137.038-.21-.086-.314.015-.46.21.053.224.279.411.352 2.412.343 3.838 1.93 5.935 2.768.684 1.436 2.874.765 4.102 1.2a.803.803 0 0 1-.06.378c-.732.216-1.528.377-2.302.059-.12.088-.268.147-.382.24-.218-.025-.196-.25-.416-.274-1.297.024-2.331-1.162-3.577-1.431-1.255.338-2.107.304-3.393.431-.247 1.352-2.663 1.583-2.963.078-1.395-.882-1.828.583-2.477 1.191.027-.46.576-.794.695-1.318-.084-.7-.591-1.215-.461-1.96.379-1.274 2.159-.936 3.145-1.587.193-.025.162.005.374.02.158-.01.173-.153.29-.202.04.044-.186.196-.152.378M110.26-145.88c.23.029.257.225.464.274-.138.059-.471-.074-.463-.275M114.39-144l.002-.127c.067.064.15.04.144-.078.098.04-.021.235-.147.206M114.921-144.523c-.128-.054.282-.294.159-.628.14-.039.191-.161.335-.196.088.01.027.143.136.133-.115.25-.406.328-.486.612-.067-.064-.15-.039-.144.079M106.11-139.163c-.135-1.362 2.436-1.103 2.108.142-.212.813-1.96.911-2.109-.142" style="stroke-width:.489969" transform="matrix(4.09535 0 0 4.09535 -186.373 610.045)"/></g></svg>